<?xml version="1.0" encoding="UTF-8" standalone="no"?>
<svg
   xmlns:dc="http://purl.org/dc/elements/1.1/"
   xmlns:cc="http://creativecommons.org/ns#"
   xmlns:rdf="http://www.w3.org/1999/02/22-rdf-syntax-ns#"
   xmlns:svg="http://www.w3.org/2000/svg"
   xmlns="http://www.w3.org/2000/svg"
   xmlns:sodipodi="http://sodipodi.sourceforge.net/DTD/sodipodi-0.dtd"
   xmlns:inkscape="http://www.inkscape.org/namespaces/inkscape"
   width="37.850262mm"
   height="50.192818mm"
   viewBox="0 0 37.850263 50.192818"
   version="1.1"
   id="svg8"
   inkscape:version="1.0.2 (e86c870879, 2021-01-15, custom)"
   sodipodi:docname="eskills_logo_only.svg">
  <defs
     id="defs2">
    <clipPath
       clipPathUnits="userSpaceOnUse"
       id="clipPath1080">
      <path
         style="fill:none;stroke:#000000;stroke-width:7.30718px;stroke-linecap:butt;stroke-linejoin:miter;stroke-opacity:1"
         d="m 194.25532,340.11856 119.38992,46.31506 79.25045,26.75994 98.80535,-63.81197 83.3671,-34.99353 88.51341,117.33148 31.90595,149.23758 c 0,0 -18.52599,49.40257 -19.55535,53.51951 -1.03009,4.11702 -34.99353,92.63035 -91.60098,112.1854 C 527.72394,766.2173 439.21083,808.41549 375.39878,814.5908 311.58695,820.7661 187.0508,799.15247 170.58318,784.7435 154.11564,770.33424 89.27452,721.96074 76.923768,694.17181 64.573163,666.38258 23.404185,567.57715 21.345751,529.49583 19.28739,491.4145 33.69643,399.81352 57.368643,387.46292 81.04071,375.11216 160.29101,344.2355 165.4371,342.17707 c 5.14608,-2.05836 28.81822,-2.05836 28.81822,-2.05836 z m 249.07223,206.87403 z"
         id="path1082" />
    </clipPath>
  </defs>
  <sodipodi:namedview
     id="base"
     pagecolor="#e9e9e9"
     bordercolor="#666666"
     borderopacity="1.0"
     inkscape:pageopacity="0"
     inkscape:pageshadow="2"
     inkscape:zoom="3.8003574"
     inkscape:cx="96.386144"
     inkscape:cy="95.560206"
     inkscape:document-units="mm"
     inkscape:current-layer="g1250"
     inkscape:document-rotation="0"
     showgrid="false"
     inkscape:window-width="1920"
     inkscape:window-height="1057"
     inkscape:window-x="-8"
     inkscape:window-y="-8"
     inkscape:window-maximized="1"
     inkscape:snap-nodes="true"
     fit-margin-top="0"
     fit-margin-left="0"
     fit-margin-right="0"
     fit-margin-bottom="0" />
  <metadata
     id="metadata5">
    <rdf:RDF>
      <cc:Work
         rdf:about="">
        <dc:format>image/svg+xml</dc:format>
        <dc:type
           rdf:resource="http://purl.org/dc/dcmitype/StillImage" />
        <dc:title />
      </cc:Work>
    </rdf:RDF>
  </metadata>
  <g
     inkscape:label="Layer 1"
     inkscape:groupmode="layer"
     id="layer1"
     transform="translate(-75.721463,-26.464291)">
    <g
       id="g1250"
       transform="translate(-10.474257,51.129112)">
      <g
         id="g1232"
         transform="matrix(2.1882569,0,0,2.1882569,-40.060543,-212.64093)"
         inkscape:export-xdpi="335.53265"
         inkscape:export-ydpi="335.53265">
        <g
           id="g2485"
           stroke-miterlimit="0"
           transform="matrix(0.03620865,0,0,0.03620865,52.885425,81.136872)"
           style="opacity:1;fill:#00ffff;stroke:#ffffff;stroke-width:14.8031;stroke-miterlimit:0;stroke-dasharray:none"
           clip-path="url(#clipPath1080)">
          <path
             id="path2392"
             stroke="#ffffff"
             transform="matrix(0.99284,0.11944,-0.11944,0.99284,20.955,-98.214)"
             fill="#95b3d7"
             d="m 654.29,578.08 a 231.43,231.43 0 1 1 -462.86,0 231.43,231.43 0 1 1 462.86,0 z"
             style="fill:#00ffff;stroke:#ffffff;stroke-width:14.8031;stroke-miterlimit:0;stroke-dasharray:none" />
          <path
             id="path2396"
             d="m -815.11,230.18 a 241.43,241.43 0 0 1 373.23,-85.32"
             fill-opacity="0"
             transform="matrix(-0.44349,-0.19233,0.21042,-0.3707,97.221,255.04)"
             stroke="#ffffff"
             stroke-width="15.943"
             style="fill:#00ffff;stroke:#ffffff;stroke-width:32.7048;stroke-miterlimit:0;stroke-dasharray:none" />
          <path
             id="path3170"
             d="m -812.93202,232.0495 c 31.29786,-68.15135 90.31082,-119.75825 163.41934,-136.470782 73.10851,-16.712532 148.11361,2.117303 205.91407,49.900872"
             fill-opacity="0"
             transform="matrix(-1.0189,-0.45628,0.49607,-0.85034,-380.71,484.23)"
             stroke="#ffffff"
             stroke-width="6.9033"
             style="fill:#00ffff;stroke:#ffffff;stroke-width:14.1609;stroke-miterlimit:0;stroke-dasharray:none"
             sodipodi:nodetypes="csc" />
          <path
             id="path3172"
             d="M -812.19409,228.66084 C -780.89623,160.50949 -722.6212,112.29125 -649.51268,95.578718 -576.40417,78.866186 -499.68047,97.076434 -441.88,144.86"
             fill-opacity="0"
             transform="matrix(0.64115,-0.98764,0.80549,0.6552,575.85,-235.75)"
             stroke="#ffffff"
             stroke-width="6.5452"
             style="fill:#00ffff;stroke:#ffffff;stroke-width:13.4262;stroke-miterlimit:0;stroke-dasharray:none"
             sodipodi:nodetypes="csc" />
          <path
             id="path3178"
             stroke="#ffffff"
             stroke-width="7.9828"
             fill="none"
             d="M 422.2,299.12 315.87954,750.75505"
             style="fill:#00ffff;stroke:#ffffff;stroke-width:14.8031;stroke-miterlimit:0;stroke-dasharray:none"
             sodipodi:nodetypes="cc" />
          <path
             id="path2393"
             d="m -794.06,193.28 c 63.46374,-91.44103 180.84675,-129.057653 284.71974,-89.06376"
             fill-opacity="0"
             transform="matrix(-1.3253,-0.66861,0.7111,-1.0989,-589.04,215.76)"
             stroke="#ffffff"
             stroke-linecap="round"
             stroke-width="5.1918"
             style="fill:#00ffff;stroke:#ffffff;stroke-width:10.6505;stroke-miterlimit:0;stroke-dasharray:none"
             sodipodi:nodetypes="cc" />
          <path
             id="path2395"
             d="m -815.11,230.18 c 31.29786,-68.15135 92.4888,-117.88875 165.59732,-134.601282 73.10851,-16.712532 147.37372,0.952165 205.17419,48.735732"
             fill-opacity="0"
             transform="matrix(-0.31108,1.1351,-0.96591,-0.37971,404.8,1314.6)"
             stroke="#ffffff"
             stroke-width="6.5481"
             style="fill:#00ffff;stroke:#ffffff;stroke-width:13.4323;stroke-miterlimit:0;stroke-dasharray:none"
             sodipodi:nodetypes="csc" />
        </g>
        <g
           id="g154"
           transform="matrix(0.18215297,0,0,0.18215297,57.142516,82.641026)"
           style="mix-blend-mode:normal;fill:#000080;stroke:#ffffff;stroke-width:1.09798;stroke-miterlimit:0;stroke-dasharray:none;stroke-opacity:1">
          <polygon
             points="86.367,72.683 88.954,75.269 88.954,50.216 83.781,52.514 83.781,75.269 "
             id="polygon150"
             style="fill:#000080;stroke:#ffffff;stroke-width:1.09798;stroke-miterlimit:0;stroke-dasharray:none;stroke-opacity:1" />
          <path
             d="M 93.912,39.711 52.57,19.006 c -1.413,-0.708 -3.726,-0.708 -5.139,0 L 6.088,39.711 C 4.675,40.419 4.633,41.655 5.994,42.457 L 44.51,65.153 44.536,65.168 18.962,53.723 v 7.495 c 0,1.581 1.114,3.531 2.476,4.333 l 26.086,15.371 c 1.362,0.803 3.59,0.803 4.952,0 L 78.562,65.551 c 1.362,-0.803 2.476,-2.752 2.476,-4.333 V 53.732 L 55.951,64.881 94.006,42.457 c 1.361,-0.803 1.319,-2.039 -0.094,-2.746 z"
             id="path152"
             style="fill:#000080;stroke:#ffffff;stroke-width:1.09798;stroke-miterlimit:0;stroke-dasharray:none;stroke-opacity:1" />
        </g>
      </g>
    </g>
  </g>
</svg>
